<svg width="148" height="45" viewBox="0 0 148 45" fill="none" xmlns="http://www.w3.org/2000/svg">
<path d="M17.832 16.384C20.04 16.8 21.832 17.616 23.208 18.832C24.616 20.048 25.32 21.872 25.32 24.304C25.32 27.856 24.04 30.368 21.48 31.84C18.952 33.28 15.4 34 10.824 34H0.119995V0.736023H9.528C14.2 0.736023 17.768 1.40802 20.232 2.75202C22.696 4.06402 23.928 6.22402 23.928 9.23202C23.928 11.184 23.336 12.768 22.152 13.984C21 15.168 19.56 15.968 17.832 16.384ZM7.992 6.30402V14.032H10.92C14.248 14.032 15.912 12.688 15.912 10C15.912 8.65602 15.464 7.71202 14.568 7.16802C13.672 6.59202 12.248 6.30402 10.296 6.30402H7.992ZM10.872 28.288C12.952 28.288 14.52 27.984 15.576 27.376C16.664 26.736 17.208 25.568 17.208 23.872C17.208 20.8 15.288 19.264 11.448 19.264H7.992V28.288H10.872Z" fill="#141414"/>
<path d="M40.641 7.69602C44.545 7.69602 47.601 8.89602 49.809 11.296C52.017 13.664 53.121 16.992 53.121 21.28C53.121 24 52.609 26.384 51.585 28.432C50.593 30.448 49.153 32.016 47.265 33.136C45.409 34.256 43.201 34.816 40.641 34.816C36.769 34.816 33.713 33.632 31.473 31.264C29.265 28.864 28.161 25.52 28.161 21.232C28.161 18.512 28.657 16.144 29.649 14.128C30.673 12.08 32.113 10.496 33.969 9.37602C35.857 8.25602 38.081 7.69602 40.641 7.69602ZM40.641 13.264C39.105 13.264 37.953 13.92 37.185 15.232C36.417 16.512 36.033 18.512 36.033 21.232C36.033 24.016 36.401 26.048 37.137 27.328C37.905 28.608 39.073 29.248 40.641 29.248C42.177 29.248 43.329 28.608 44.097 27.328C44.865 26.016 45.249 24 45.249 21.28C45.249 18.496 44.865 16.464 44.097 15.184C43.361 13.904 42.209 13.264 40.641 13.264Z" fill="#141414"/>
<path d="M71.4562 7.79202C72.3842 7.79202 73.2322 7.90402 74.0002 8.12802L72.8002 15.472C71.8402 15.248 71.0722 15.136 70.4962 15.136C68.9922 15.136 67.8402 15.664 67.0402 16.72C66.2722 17.744 65.6642 19.296 65.2162 21.376V34H57.6322V8.51202H64.2562L64.8802 13.456C65.4562 11.696 66.3202 10.32 67.4722 9.32802C68.6562 8.30402 69.9842 7.79202 71.4562 7.79202Z" fill="#141414"/>
<path d="M99.8074 10C98.1434 10.672 95.6954 11.008 92.4634 11.008C94.1274 11.712 95.3434 12.576 96.1114 13.6C96.8794 14.624 97.2634 15.952 97.2634 17.584C97.2634 19.216 96.8314 20.688 95.9674 22C95.1034 23.28 93.8554 24.288 92.2234 25.024C90.6234 25.76 88.7354 26.128 86.5594 26.128C85.5354 26.128 84.5594 26.032 83.6314 25.84C83.3754 25.968 83.1674 26.176 83.0074 26.464C82.8794 26.72 82.8154 26.992 82.8154 27.28C82.8154 27.76 82.9914 28.144 83.3434 28.432C83.7274 28.688 84.4794 28.816 85.5994 28.816H89.4394C91.3914 28.816 93.1034 29.136 94.5754 29.776C96.0474 30.416 97.1834 31.296 97.9834 32.416C98.7834 33.536 99.1834 34.8 99.1834 36.208C99.1834 38.864 98.0314 40.928 95.7274 42.4C93.4554 43.904 90.1594 44.656 85.8394 44.656C82.7354 44.656 80.2874 44.32 78.4954 43.648C76.7034 43.008 75.4394 42.096 74.7034 40.912C73.9994 39.728 73.6474 38.24 73.6474 36.448H80.4634C80.4634 37.216 80.6074 37.824 80.8954 38.272C81.2154 38.72 81.7754 39.056 82.5754 39.28C83.3754 39.504 84.5274 39.616 86.0314 39.616C88.1114 39.616 89.5514 39.36 90.3514 38.848C91.1514 38.368 91.5514 37.664 91.5514 36.736C91.5514 35.968 91.2474 35.36 90.6394 34.912C90.0314 34.464 89.1194 34.24 87.9034 34.24H84.2074C81.5834 34.24 79.6154 33.776 78.3034 32.848C77.0234 31.888 76.3834 30.672 76.3834 29.2C76.3834 28.272 76.6554 27.376 77.1994 26.512C77.7434 25.616 78.4794 24.88 79.4074 24.304C77.8074 23.44 76.6394 22.432 75.9034 21.28C75.1994 20.096 74.8474 18.672 74.8474 17.008C74.8474 14.16 75.8714 11.904 77.9194 10.24C79.9674 8.54402 82.6714 7.69602 86.0314 7.69602C88.5914 7.76002 90.7514 7.50402 92.5114 6.92802C94.3034 6.35202 96.1434 5.50402 98.0314 4.38402L99.8074 10ZM86.2234 12.688C85.0394 12.688 84.0954 13.072 83.3914 13.84C82.7194 14.576 82.3834 15.6 82.3834 16.912C82.3834 18.288 82.7194 19.36 83.3914 20.128C84.0954 20.864 85.0394 21.232 86.2234 21.232C87.4714 21.232 88.4154 20.864 89.0554 20.128C89.7274 19.392 90.0634 18.288 90.0634 16.816C90.0634 14.064 88.7834 12.688 86.2234 12.688Z" fill="#141414"/>
<path d="M123.919 20.752C123.919 21.808 123.871 22.72 123.775 23.488H107.983C108.239 25.632 108.847 27.136 109.807 28C110.767 28.864 112.095 29.296 113.791 29.296C114.815 29.296 115.807 29.12 116.767 28.768C117.727 28.384 118.767 27.808 119.887 27.04L123.007 31.264C120.031 33.632 116.719 34.816 113.071 34.816C108.943 34.816 105.775 33.6 103.567 31.168C101.359 28.736 100.255 25.472 100.255 21.376C100.255 18.784 100.719 16.464 101.647 14.416C102.575 12.336 103.935 10.704 105.727 9.52002C107.519 8.30402 109.663 7.69602 112.159 7.69602C115.839 7.69602 118.719 8.84802 120.799 11.152C122.879 13.456 123.919 16.656 123.919 20.752ZM116.479 18.592C116.415 14.688 115.039 12.736 112.351 12.736C111.039 12.736 110.015 13.216 109.279 14.176C108.575 15.136 108.143 16.72 107.983 18.928H116.479V18.592Z" fill="#141414"/>
<path d="M137.155 7.69602C138.979 7.69602 140.691 7.96802 142.291 8.51202C143.891 9.05602 145.299 9.82402 146.515 10.816L143.731 15.088C141.651 13.776 139.555 13.12 137.443 13.12C136.451 13.12 135.683 13.296 135.139 13.648C134.627 13.968 134.371 14.432 134.371 15.04C134.371 15.52 134.483 15.92 134.707 16.24C134.963 16.528 135.459 16.832 136.195 17.152C136.931 17.472 138.067 17.856 139.603 18.304C142.259 19.072 144.227 20.08 145.507 21.328C146.819 22.544 147.475 24.24 147.475 26.416C147.475 28.144 146.979 29.648 145.987 30.928C144.995 32.176 143.635 33.136 141.907 33.808C140.179 34.48 138.259 34.816 136.147 34.816C134.003 34.816 132.003 34.48 130.147 33.808C128.323 33.136 126.771 32.208 125.491 31.024L129.187 26.896C131.331 28.56 133.587 29.392 135.955 29.392C137.107 29.392 138.003 29.184 138.643 28.768C139.315 28.352 139.651 27.76 139.651 26.992C139.651 26.384 139.523 25.904 139.267 25.552C139.011 25.2 138.515 24.88 137.779 24.592C137.043 24.272 135.875 23.888 134.275 23.44C131.747 22.704 129.859 21.68 128.611 20.368C127.363 19.056 126.739 17.424 126.739 15.472C126.739 14 127.155 12.688 127.987 11.536C128.851 10.352 130.067 9.42402 131.635 8.75202C133.235 8.04802 135.075 7.69602 137.155 7.69602Z" fill="#141414"/>
</svg>
